PathFileType	4	(X/Y/Z)	Patient4_TMGait_0pt6_01_left_19.trc.trc
DataRate	CameraRate	NumFrames	NumMarkers	Units	OrigDataRate	OrigDataStartFrame	OrigNumFrames
83.333333333333	83.333333333333	4	33	mm	83.333333333333	71	       141
Frame#	Time	Sacral			L.Shoulder			Chest			R.Shoulder			Neck			R.ASIS			L.ASIS			R.Thigh.Superior			R.Thigh.Lateral			R.Thigh.Inferior			R.Patella			L.Thigh.Superior			L.Thigh.Lateral			L.Thigh.Inferior			L.Patella			L.Shank.Superior			L.Shank.Lateral			L.Shank.Inferior			R.Shank.Superior			R.Shank.Lateral			R.Shank.Inferior			R.Heel			R.Midfoot.Superior			R.Midfoot.Lateral			R.Toe			L.Heel			L.Midfoot.Lateral			L.Midfoot.Superior			L.Toe			L.Elbow			L.Wrist			R.Elbow			R.Wrist			
		X1	Y1	Z1	X2	Y2	Z2	X3	Y3	Z3	X4	Y4	Z4	X5	Y5	Z5	X6	Y6	Z6	X7	Y7	Z7	X8	Y8	Z8	X9	Y9	Z9	X10	Y10	Z10	X11	Y11	Z11	X12	Y12	Z12	X13	Y13	Z13	X14	Y14	Z14	X15	Y15	Z15	X16	Y16	Z16	X17	Y17	Z17	X18	Y18	Z18	X19	Y19	Z19	X20	Y20	Z20	X21	Y21	Z21	X22	Y22	Z22	X23	Y23	Z23	X24	Y24	Z24	X25	Y25	Z25	X26	Y26	Z26	X27	Y27	Z27	X28	Y28	Z28	X29	Y29	Z29	X30	Y30	Z30	X31	Y31	Z31	X32	Y32	Z32	X33	Y33	Z33	

71	23.930000000000	721.167352552171	1001.839587526428	433.791083542128	919.188059049396	1432.674891965672	275.575496219441	999.626499447817	1361.476974069132	447.890022731823	893.095071320023	1433.685215983838	608.566449170483	885.257946966552	1491.838724720581	427.266230943287	933.755735210529	941.019646633977	576.529808312715	948.664063665292	958.740601609177	301.164105342093	1012.371439006497	769.320588920138	551.606162347240	966.825143088617	645.708425770103	621.518078066538	1060.670252662455	611.138675400815	546.756081933676	1094.310001189165	526.222983110652	564.129926919647	950.285206189686	731.211621097521	328.895881534265	837.070755122000	636.230335111661	261.872318901160	893.986924388729	543.499331947060	328.964234612060	879.567182346965	477.401514950914	337.929481944615	848.599910344979	411.529619879193	329.873365017705	751.435886130406	303.774265154526	278.284618211032	791.501354286921	190.533397496913	353.328264623490	1075.382324461774	435.743350111153	571.523732363320	1015.226457022197	323.671319735160	631.021344300644	1081.904439767958	235.417803033084	581.180513252964	982.532084252864	51.630388794624	547.916626635074	1145.450606443748	122.002806990780	595.831078953240	1063.380127686962	48.092023869694	625.240172974130	1266.779707896421	82.009069031582	627.144717159169	654.471411550584	38.986326758214	399.682784364921	727.047801239637	35.044338178331	317.837488115935	811.013895341903	95.603861912696	343.344358719885	938.848639394816	42.546128827233	313.572416141223	992.942518708383	1099.220485722586	135.111597971483	1242.319974531907	1036.601595778034	164.405154743542	735.205327803362	1128.601698776343	713.152503716672	693.849228601445	873.185413589289	741.502084501732	
72	23.942000000000	722.828555112113	1000.078347833880	435.692563847256	919.434224502037	1431.433245754599	277.675256216722	999.877913634685	1360.593078318872	450.085245389467	892.848098683847	1432.484931967122	610.597706721129	885.128405929318	1490.496805302256	429.304715183295	935.587505389282	939.497336262811	578.466042591804	950.417497480578	957.647244364562	303.067362758677	1013.548683029538	766.536218173104	553.738365180811	966.070494420624	642.764798281771	622.253363064890	1060.181629570973	608.179449920326	547.983987563100	1092.554585969407	523.604496265829	564.351240281746	950.390878123478	729.756453095917	330.211235217203	836.199716382285	635.615966883844	263.169781128893	892.305733856831	542.226993364981	330.046928126409	877.609713015507	475.873507294441	338.808484233759	845.547801300826	410.412066271307	330.693003839146	746.912948243599	303.981725192763	278.884859934647	785.472740649696	189.999658237953	353.560755209112	1074.581884371912	433.009987454796	571.811691957559	1015.097244037610	320.198119215455	630.418992998357	1082.884686467666	232.756993104788	580.724959952600	984.955505366078	49.078870753251	546.182684443575	1147.234933676955	119.558301048522	595.060819607479	1065.089628582251	46.019888474470	624.342458562703	1268.438297113053	79.793905074942	627.860308165527	647.195592955690	39.049594198587	399.521679842904	719.844218071718	35.008161982395	317.806473124477	803.853740037212	95.555918381131	343.339290062269	931.672769775080	42.207374082765	313.566857570311	993.283626318529	1098.054977698273	137.202559755506	1242.946234315740	1037.752989780304	167.244584672431	733.700476553313	1128.264215722232	714.474072292409	691.832390257088	872.936959673444	742.950596532595	
73	23.954000000000	724.672265476536	998.258145288250	437.937025796643	919.462130323248	1430.169401136750	279.879236245896	1000.112685660861	1359.770908244098	452.322778790500	892.649885684260	1431.221456628091	612.781352227287	884.898958508849	1489.132082428209	431.478629817914	937.717530832603	937.935736407858	580.484268331932	952.284626265582	956.516584735350	305.101118803713	1015.136931642623	763.668185132928	555.880734268773	965.561679419051	639.816905534624	622.876726120081	1059.959064661083	605.184030151489	549.140919001773	1090.885982853833	520.670203637208	564.505186715687	950.895198701122	728.305391406102	331.613358655139	835.755221067961	634.923250890786	264.681859460820	891.202580843609	540.890343055084	331.267791972958	876.245856884217	474.182604977594	339.848944693010	842.977452869652	409.137542061414	331.657304244188	742.705717048493	304.218838986553	279.603346269520	779.579126748872	189.422638295824	353.844346671154	1073.469799885392	429.951454926485	571.989423810657	1014.103906925238	316.702863907964	629.674958421824	1082.477130604169	229.762910532795	580.078853715617	984.933033253148	46.902352486378	544.309349372510	1146.908525913336	116.715378390526	594.035362649002	1064.338206692938	44.025349592610	623.337076000084	1267.835646779018	76.534852693061	628.344824648722	639.897572985240	39.176655186632	399.313161250801	712.650673402860	34.979191198291	317.758142457697	796.721408593909	95.519151774002	343.315198401170	924.529874535863	41.850622687157	313.544659899091	993.329016171191	1096.720280935028	139.539884610625	1243.129733951732	1037.857321557407	170.175548460118	733.066262673023	1127.302008317833	715.886356835926	691.197875881637	871.962412561873	744.346386518883	
74	23.966000000000	726.664888941359	996.444668467004	440.494553372530	919.307399610879	1428.923028705415	282.188984322939	1000.356512290793	1359.035108668823	454.607764435734	892.531735263268	1429.933939716975	615.122400172560	884.610422663538	1487.792587919799	433.785831174297	940.095884953116	936.388750652430	582.584617869927	954.239713727177	955.384251831822	307.269056143354	1017.081673419043	760.803126526280	558.010119074759	965.308781925701	636.984350217074	623.432204809026	1059.991639706930	602.260872850445	550.234393201845	1089.365604717464	517.565803385938	564.620437643224	951.805290378848	726.896073783782	333.097927506569	835.764210692851	634.164060893722	266.406438159420	890.744644542951	539.516170823156	332.614886941663	875.539613880694	472.338582232576	341.025208463728	840.938112476149	407.721009659619	332.751520795337	738.856719905277	304.524359342335	280.436892553055	773.861671757572	188.840867844138	354.162633789948	1072.147155540614	426.716466847553	572.092405482619	1012.443651824353	313.303392438263	628.898408958438	1080.891482536651	226.565871463542	579.313319705454	982.754397387555	45.119274900472	542.466979441123	1144.751189493612	113.624568330302	592.831532528737	1061.473483650663	42.174674953349	622.326635486047	1265.307318710636	72.472181871968	628.564259826457	632.586760026106	39.450383892779	399.051583591051	705.473401738552	34.990167897717	317.686810713073	789.649730649643	95.501725675884	343.253018087212	917.427564286899	41.477121441487	313.501932243879	993.057517168042	1095.234605287820	142.119735890331	1242.867249660923	1036.927900583513	173.183899475693	733.336741832401	1125.748253418947	717.426190302077	691.958331780260	870.286085713612	745.692111045584	
